<?xml version="1.0" encoding="utf-8"?>
<!-- Generator: Adobe Illustrator 24.0.0, SVG Export Plug-In . SVG Version: 6.00 Build 0)  -->
<svg version="1.1" id="Layer_1" xmlns="http://www.w3.org/2000/svg" xmlns:xlink="http://www.w3.org/1999/xlink" x="0px" y="0px"
	 viewBox="0 0 209.8329926 38" style="enable-background:new 0 0 209.8329926 38;" xml:space="preserve">
<style type="text/css">
	.st0{fill:#7C8381;}
</style>
<g>
	<path class="st0" d="M69.4504166,34.9522743v2.8635216h-1.7063904c-2.0396347,0-2.8032379-0.8824997-2.8333817-2.3812408
		c-1.0382309,1.5205116-2.6558685,2.5587463-5.0873489,2.5587463c-3.3826332,0-5.7320595-1.6762466-5.7320595-4.5682335
		c0-3.2336006,2.2841148-4.9986019,6.6162338-4.9986019h3.8716164v-0.9411087c0-1.7348576-1.2458839-2.8032322-3.3826408-2.8032322
		c-1.9207344,0-3.1967583,0.9126415-3.441246,2.2841167h-3.2637444c0.3633842-3.01758,2.9221306-4.9399891,6.8607254-4.9399891
		s6.4889679,1.9793434,6.4889679,5.6667538v6.2444782c0,0.7937508,0.2746353,1.0080948,0.9712524,1.0080948h0.6380157V34.9522743z
		 M64.5774078,30.8663197h-4.020649c-2.0094872,0-3.1364708,0.7636051-3.1364708,2.3427296
		c0,1.3128624,1.0968399,2.2255058,2.8635139,2.2255058c2.6843376,0,4.2936058-1.615963,4.2936058-3.9603653V30.8663197z"/>
	<path class="st0" d="M76.6128998,37.8139534L70.7016525,22.210289h3.5383759l4.4493408,12.066967l4.4191895-12.066967h3.4713898
		l-5.9413834,15.6036644h-4.0273438H76.6128998z"/>
	<path class="st0" d="M103.3871307,34.9522743v2.8635216h-1.7063904c-2.0396271,0-2.8032303-0.8824997-2.8333664-2.3812408
		c-1.0382385,1.5205116-2.6558838,2.5587463-5.0873566,2.5587463c-3.382637,0-5.7337341-1.6762466-5.7337341-4.5682335
		c0-3.2336006,2.284111-4.9986019,6.6162262-4.9986019h3.8716125v-0.9411087c0-1.7348576-1.2458725-2.8032322-3.3826294-2.8032322
		c-1.9207382,0-3.1967621,0.9126415-3.4412537,2.2841167h-3.2637405c0.3633881-3.01758,2.9221344-4.9399891,6.8607254-4.9399891
		s6.4889755,1.9793434,6.4889755,5.6667538v6.2444782c0,0.7937508,0.2746277,1.0080948,0.9712448,1.0080948h0.6380157v0.0066948
		H103.3871307z M98.5074234,30.8663197h-4.0189667c-2.009491,0-3.1364746,0.7636051-3.1364746,2.3427296
		c0,1.3128624,1.0985184,2.2255058,2.8635178,2.2255058c2.6843414,0,4.293602-1.615963,4.293602-3.9603653v-0.6078701H98.5074234z"
		/>
	<path class="st0" d="M118.4567719,34.9221344v2.8919868h-12.6748352v-2.8919868h4.7089081v-15.33741l-4.7089081,1.5573521
		v-2.9070568l4.0273514-1.5422821h3.9754333V34.928833h4.6804352l-0.0067062-0.0066986H118.4567719z"/>
	<path class="st0" d="M136.0111542,34.9522743v2.8635216h-1.7063904c-2.0396271,0-2.8032227-0.8824997-2.833374-2.3812408
		c-1.0382385,1.5205116-2.6542053,2.5587463-5.0873489,2.5587463c-3.382637,0-5.7337418-1.6762466-5.7337418-4.5682335
		c0-3.2336006,2.2841187-4.9986019,6.6162338-4.9986019h3.8716049v-0.9411087c0-1.7348576-1.2458801-2.8032322-3.3826218-2.8032322
		c-1.9207382,0-3.1967621,0.9126415-3.4412537,2.2841167h-3.2637405c0.3633804-3.01758,2.9221344-4.9399891,6.8607254-4.9399891
		s6.4889755,1.9793434,6.4889755,5.6667538v6.2444782c0,0.7937508,0.2746124,1.0080948,0.9712524,1.0080948h0.6380005v0.0066948
		H136.0111542z M131.1398163,30.8663197h-4.0189667c-2.009491,0-3.1364746,0.7636051-3.1364746,2.3427296
		c0,1.3128624,1.0968475,2.2255058,2.8618393,2.2255058c2.6843491,0,4.293602-1.615963,4.293602-3.9603653V30.8663197z"/>
	<path class="st0" d="M153.6346893,28.9154434v8.9003525h-3.3223572v-8.5955811
		c0-2.7730923-1.1872559-4.2936039-3.5383606-4.2936039c-2.4700012,0-3.9603577,1.7951412-3.9603577,4.8127232v8.0764618h-3.2922211
		V22.2121296h2.8635254l0.3633728,2.039629c0.9411163-1.2157383,2.4097137-2.2255058,4.7825775-2.2255058
		c3.3223572,0,6.0971222,1.7951393,6.0971222,6.8891907H153.6346893z"/>
	<path class="st0" d="M157.6755981,30.0424309c0-4.8127232,3.0778656-8.0178547,7.7716827-8.0178547
		c3.9900208,0,6.4884796,2.2255096,7.0980377,5.7622051h-3.4412537c-0.4303741-1.8319836-1.7360382-2.9589691-3.7153778-2.9589691
		c-2.6173553,0-4.3605804,2.1652203-4.3605804,5.2146187s1.734848,5.1476364,4.3605804,5.1476364
		c1.950882,0,3.2917023-1.1571312,3.6852264-2.9589729h3.471405c-0.579422,3.5367012-3.2336121,5.762207-7.1934662,5.762207
		c-4.6955109,0-7.6829376-3.0778656-7.6829376-7.9508705H157.6755981z"/>
	<path class="st0" d="M190.7646484,28.9154434v8.9003525h-3.3223419V29.190073c0-2.6843395-1.1856079-4.2651348-3.6254578-4.2651348
		c-2.4398346,0-4.0206451,1.8319817-4.0206451,4.7842522v8.1066055h-3.2922211v-21.329113h3.2922211v7.7131634
		c1.0683746-1.3430061,2.6843414-2.1652222,4.784256-2.1652222c3.6555939,0,6.1841888,2.1652222,6.1841888,6.8891907v-0.0066967
		V28.9154434z"/>
	<path class="st0" d="M198.1009674,30.7775688v0.1557331c0.0887299,2.647501,1.734848,4.3907299,4.2935944,4.3907299
		c1.9508667,0,3.4412384-1.008091,3.8716125-2.7446251h3.2922058C209.0091248,35.6572723,206.4219055,38,202.5804443,38
		c-4.8730164,0-7.9207306-3.1666183-7.9207306-7.9508724s3.0477142-8.0178509,7.5858154-8.0178509
		c4.5380859,0,7.4987183,2.8635178,7.5874786,7.4384499c0,0.3332386-0.0301361,0.8523579-0.0887604,1.3128643h-11.64328v-0.0066967
		V30.7775688z M198.2198486,28.3075733h8.1936951c-0.2746277-2.3142605-1.8604736-3.6271248-4.1445618-3.6271248
		c-2.0396423,0-3.8130188,1.4016171-4.0575104,3.6271248H198.2198486z"/>
	<path class="st0" d="M26.9499302,37.8139534h14.4046726c1.2709999,0,2.0664215-1.3764992,1.4300842-2.4766922
		l-7.2023354-12.4738903c-0.6363373-1.100193-2.2238312-1.100193-2.8601685,0L25.519846,35.3372612
		C24.8835087,36.4374542,25.6789303,37.8139534,26.9499302,37.8139534z"/>
	<path class="st0" d="M28.75177,11.0324984L22.8321571,0.77742c-0.5978241-1.0365601-2.0948906-1.0365601-2.6927128,0
		L0.2303755,35.260231c-0.6547579,1.1353607,0.1641081,2.5520477,1.4736153,2.5520477h11.8542995
		c1.2643013,0,2.4314785-0.6748505,3.0627937-1.7683487L28.75177,15.0330524
		C29.4668121,13.7955437,29.4668121,12.2700081,28.75177,11.0324984z"/>
</g>
</svg>
