<?xml version="1.0" encoding="utf-8"?>
<!-- Generator: Adobe Illustrator 24.0.0, SVG Export Plug-In . SVG Version: 6.00 Build 0)  -->
<svg version="1.1" id="Layer_1" xmlns="http://www.w3.org/2000/svg" xmlns:xlink="http://www.w3.org/1999/xlink" x="0px" y="0px"
	 viewBox="0 0 150.2030029 38" style="enable-background:new 0 0 150.2030029 38;" xml:space="preserve">
<style type="text/css">
	.st0{fill:#7C8381;}
</style>
<g>
	<path class="st0" d="M52.4802208,37.9706612c-2.9594574,0-5.8133011-1.0819283-7.4948578-3.9357719h-0.9763184v3.1237373
		h-6.7285881V0h6.7285881v13.5182028h0.9763184c1.7273254-2.9594536,4.9566727-4.1000528,7.8703613-4.1000528
		c7.2695541,0,12.1816368,5.8132963,12.1816368,13.999321S59.6453323,37.9565773,52.480217,37.9565773v0.0152588
		L52.4802208,37.9706612z M51.0239601,31.9484901c4.1458206,0,7.1040993-3.394804,7.1040993-8.2458668
		s-3.0193024-8.2458687-7.1040993-8.2458687s-6.9996567,3.2293491-6.9996567,8.2458687S46.983757,31.9484901,51.0239601,31.9484901z
		 M77.4736328,37.9706612c-5.1667252,0-9.3723831-3.1237373-9.3723831-8.2458687s4.6257553-7.975975,10.2290039-8.5615273
		l7.9161301-0.8108597v-1.5020218c0-2.3128815-1.8927765-3.9357691-5.2265625-3.9357691s-5.0165176,1.3964109-5.6020737,3.4992437
		H68.959053c0.645401-5.1221323,4.8968277-8.9968805,12.0607758-8.9968805s11.4752121,3.334959,11.4752121,9.8535032v13.1426964
		c0,1.6674805,0.1654587,3.9803619,0.2698975,4.6257629v0.1056099h-6.4586945
		c-0.0598526-0.9164696-0.0598526-1.7719193-0.0598526-2.688385h-0.9763107
		c-1.6674805,2.688385-4.5811691,3.4992447-7.8105164,3.4992447l0.0152512,0.015255L77.4736328,37.9706612z M79.3065796,32.9095497
		c4.4157104,0,6.9538956-3.3349571,6.9538956-6.72859v-1.35182l-5.932991,0.706419
		c-3.6646957,0.4353523-5.4377899,1.5020237-5.4377899,3.8747501s1.8329315,3.4992409,4.4157104,3.4992409H79.3065796z
		 M108.6711197,37.9706612c-6.7896118,0-11.6406784-3.3948059-12.3916855-8.7269859h6.6241608
		c0.7510147,2.3727264,3.2293472,3.3948059,5.8132935,3.3948059c2.5839386,0,4.791214-1.1265202,4.791214-3.1237392
		s-2.0429764-2.5381832-4.8510666-3.0192986l-2.8538437-0.4811172c-5.3920288-0.9164696-8.7269821-3.1847572-8.7269821-8.020565
		s4.6257553-8.5615292,11.0398712-8.5615292c6.4141083,0,10.3944626,2.9136896,11.5209808,7.975975h-6.4586945
		c-0.7510147-1.99722-2.74823-2.7939959-5.0165253-2.7939959c-2.2682877,0-4.5213165,1.1863632-4.5213165,2.8538446
		s1.3964157,2.2682877,4.3112717,2.7482319l2.8538437,0.4811172c5.2265701,0.8566227,9.2069321,3.0192986,9.2069321,8.2458687
		S115.2659454,38,108.6417923,38l0.0305099-0.0305099L108.6711197,37.9706612z M136.8938904,37.9706612
		c-8.2916412,0-13.7881088-5.6630974-13.7881088-14.3290615S128.9190826,9.416976,136.9549103,9.416976
		c8.0358124,0,13.2483063,6.2486486,13.2483063,14.4945173v1.1863632h-20.5178528
		c0.3309021,4.4755592,3.4546356,7.1040974,7.2249451,7.1040974s5.0165253-1.0819263,5.9329987-2.9594536h6.8940582
		c-1.3964233,5.0622826-6.4141235,8.7269859-12.8270569,8.7269859h-0.0152435L136.8938904,37.9706612z M143.623642,20.6375542
		c-0.5409546-3.6048527-3.3948059-5.7076845-6.7285767-5.7076845c-3.333786,0-6.4587097,2.042985-7.1041107,5.7076845h13.8491211
		h-0.0152588H143.623642z"/>
	<path class="st0" d="M1.6214983,37.1750565c-1.0819256,0-1.6217149-0.5409584-1.6217149-1.6217155V11.8507233
		c0-1.0819254,0.5409629-1.6217146,1.6217149-1.6217146h23.7014465c1.0819244,0,1.6217155,0.5409622,1.6217155,1.6217146v23.7014465
		c0,1.0819283-0.5409641,1.6217155-1.6217155,1.6217155H1.6214983V37.1750565z"/>
</g>
</svg>
