<?xml version="1.0" encoding="utf-8"?>
<!-- Generator: Adobe Illustrator 24.0.0, SVG Export Plug-In . SVG Version: 6.00 Build 0)  -->
<svg version="1.1" id="Layer_1" xmlns="http://www.w3.org/2000/svg" xmlns:xlink="http://www.w3.org/1999/xlink" x="0px" y="0px"
	 viewBox="0 0 1101.6 196.8" style="enable-background:new 0 0 1101.6 196.8;" xml:space="preserve">
<style type="text/css">
	.st0{fill:#7C8381;}
</style>
<path class="st0" d="M222.3,54.9c-40,0-71.3,30.4-71.3,71.1s30.5,70.8,71.3,70.8c40.8,0,71.8-30.6,71.8-71.1
	C294.2,85.6,263.7,54.9,222.3,54.9z M222.6,167.5c-22.8,0-39.5-17.7-39.5-41.5c0-24,16.4-41.7,39.2-41.7c23.1,0,39.8,18,39.8,41.7
	S245.4,167.5,222.6,167.5z M302.9,85.8h19.9v108.3h31.8V57.6h-51.7V85.8z M71,84.3c16.7,0,29.9,10.3,35,25.6h33.7
	c-6.1-32.8-33.1-54.9-68.4-54.9C31.3,54.9,0,85.3,0,126s30.5,70.8,71.3,70.8c34.5,0,62-22.2,68.1-55.2H106
	c-4.8,15.3-18,25.9-34.7,25.9c-23.1,0-39.2-17.7-39.2-41.5C32.1,102,48,84.3,71,84.3z M907.1,112.8l-23.3-3.4
	c-11.1-1.6-19.1-5.3-19.1-14c0-9.5,10.3-14.3,24.4-14.3c15.4,0,25.2,6.6,27.3,17.4h30.7c-3.4-27.5-24.6-43.6-57.2-43.6
	c-33.7,0-55.9,17.2-55.9,41.5c0,23.2,14.6,36.7,44,40.9l23.3,3.4c11.4,1.6,17.8,6.1,17.8,14.5c0,10.8-11.1,15.3-26.5,15.3
	c-18.8,0-29.4-7.7-31-19.3h-31.3c2.9,26.7,23.9,45.4,62,45.4c34.7,0,57.8-15.8,57.8-43.1C950.1,129.4,933.4,116.8,907.1,112.8z
	 M338.7,1.3c-11.7,0-20.4,8.5-20.4,20.1s8.7,20.1,20.4,20.1c11.7,0,20.4-8.5,20.4-20.1S350.3,1.3,338.7,1.3z M805.4,104.3
	c0-29.6-18-49.4-56.2-49.4c-36,0-56.2,18.2-60.2,46.2h31.5c1.6-10.8,10.1-19.8,28.1-19.8c16.2,0,24.1,7.1,24.1,15.8
	c0,11.4-14.6,14.3-32.6,16.1c-24.4,2.6-54.6,11.1-54.6,42.8c0,24.6,18.3,40.4,47.4,40.4c22.8,0,37.1-9.5,44.3-24.6
	c1.1,13.5,11.1,22.2,25.2,22.2H821v-28.3h-15.6V104.3z M774.1,138.7c0,18.2-15.9,31.7-35.2,31.7c-11.9,0-22-5-22-15.6
	c0-13.5,16.2-17.2,31-18.8c14.3-1.3,22.3-4.5,26.2-10.6V138.7z M605.3,54.9c-17.8,0-32.6,7.4-43.2,19.8V0h-31.8v194.1h31.3v-18
	c10.6,12.9,25.7,20.6,43.7,20.6c38.2,0,67-30.1,67-70.8S642.9,54.9,605.3,54.9z M600.5,167.5c-22.8,0-39.5-17.7-39.5-41.5
	s17-41.7,39.8-41.7c23.1,0,39.2,17.7,39.2,41.7C640,149.8,623.3,167.5,600.5,167.5z M454.2,54.9c-20.7,0-34.2,8.5-42.1,20.3V57.6
	h-31.5v136.6h31.8v-74.2c0-20.9,13.3-35.7,32.9-35.7c18.3,0,29.7,12.9,29.7,31.7v78.2h31.8v-80.6C506.7,79.2,488.9,54.9,454.2,54.9z
	 M1101.6,121.5c0-39.1-28.6-66.6-67-66.6c-40.8,0-70.8,30.6-70.8,71.1c0,42.5,32.1,70.8,71.3,70.8c33.1,0,59.1-19.5,65.7-47.3h-33.1
	c-4.8,12.2-16.4,19-32.1,19c-20.4,0-35.8-12.7-39.2-34.9h105.2V121.5z M998.3,110.9c5-19,19.3-28.3,35.8-28.3
	c18,0,31.8,10.3,35,28.3H998.3z"/>
</svg>
