<svg width="104" height="73" viewBox="0 0 104 73" fill="none" xmlns="http://www.w3.org/2000/svg">
<mask id="mask0_209_2510" style="mask-type:alpha" maskUnits="userSpaceOnUse" x="0" y="0" width="104" height="73">
<path d="M8.26867 51.7365H12.8018L11.6702 56.2696H8.26867C7.32912 56.2696 6.5336 56.5988 5.86837 57.264C5.20315 57.9293 4.87397 58.7316 4.87397 59.6643C4.87397 60.6039 5.20315 61.3994 5.86837 62.0646C6.5336 62.7299 7.33598 63.059 8.26867 63.059H11.6702L12.8018 67.5922H8.26867C6.07411 67.5922 4.20874 66.8172 2.65884 65.2673C1.10894 63.7311 0.333984 61.8589 0.333984 59.6712C0.333984 57.4766 1.10894 55.6113 2.65884 54.0614C4.20874 52.5115 6.07411 51.7365 8.26867 51.7365Z" fill="#FF7E06"/>
<path d="M20.5792 67.606C18.3847 67.606 16.5193 66.831 14.9694 65.2811C13.4195 63.7312 12.6445 61.859 12.6445 59.6713C12.6445 57.4768 13.4195 55.6114 14.9694 54.0615C16.5193 52.5116 18.3915 51.7366 20.5792 51.7366C22.7738 51.7366 24.6391 52.5116 26.189 54.0615C27.7389 55.6114 28.5139 57.4836 28.5139 59.6713C28.5139 61.8659 27.7389 63.7312 26.189 65.2811C24.6391 66.831 22.7738 67.606 20.5792 67.606ZM22.9795 62.0716C23.6447 61.4064 23.9739 60.604 23.9739 59.6713C23.9739 58.7318 23.6379 57.9362 22.9795 57.271C22.3143 56.6058 21.5119 56.2766 20.5792 56.2766C19.6397 56.2766 18.8441 56.6058 18.1789 57.271C17.5137 57.9362 17.1845 58.7386 17.1845 59.6713C17.1845 60.6109 17.5137 61.4064 18.1789 62.0716C18.8441 62.7368 19.6465 63.066 20.5792 63.066C21.5188 63.0729 22.3143 62.7368 22.9795 62.0716Z" fill="#FF7E06"/>
<path d="M35.056 51.7366L38.4576 59.6713L41.8591 51.7366H47.5238V67.606H42.9907V60.0416L38.4576 69.8691L33.9245 60.0759V67.5991H29.3913V52.8682L28.2598 51.7366H35.056Z" fill="#FF7E06"/>
<path d="M57.3163 51.7366C61.095 51.7366 62.9809 53.6226 62.9809 57.4013C62.9809 61.1801 61.095 63.066 57.3163 63.066H55.0463V58.5329H57.3163C58.0706 58.5329 58.4478 58.1557 58.4478 57.4013C58.4478 56.6469 58.0706 56.2698 57.3163 56.2698H53.9147V67.606H49.3816V52.8682L48.25 51.7366H57.3163Z" fill="#FF7E06"/>
<path d="M68.8307 51.7366V59.6713C68.8307 61.9413 69.5851 63.0729 71.1007 63.0729C72.6095 63.0729 73.3707 61.9413 73.3707 59.6713V51.7366H77.9038V59.6713C77.9038 64.9588 75.6338 67.606 71.1007 67.606C66.5676 67.606 64.2976 64.9588 64.2976 59.6713V52.8682L63.166 51.7366H68.8307Z" fill="#FF7E06"/>
<path d="M78.7754 51.7366H90.1116V56.2698H86.7101V72.1391L82.1769 67.606V56.2698H79.907L78.7754 57.4013V51.7366Z" fill="#FF7E06"/>
<path d="M94.2668 61.9344V57.4013H97.6684C98.4227 57.4013 98.7999 57.2093 98.7999 56.8321C98.7999 56.4549 98.4227 56.2629 97.6684 56.2629H93.1352L90.8652 51.7297H97.6684C101.447 51.7297 103.333 53.4305 103.333 56.8321C103.333 58.0665 102.956 59.0061 102.201 59.6644C102.956 60.3228 103.333 61.2692 103.333 62.4968C103.333 65.8983 101.447 67.5991 97.6684 67.5991H90.8652L93.1352 63.066H97.6684C98.4227 63.066 98.7999 62.874 98.7999 62.4968C98.7999 62.1196 98.4227 61.9276 97.6684 61.9276H94.2668V61.9344Z" fill="#FF7E06"/>
<path d="M71.4928 43.0201H75.4224L63.2152 30.4083L58.9359 21.9318H57.8797L57.0911 23.0565H55.6372V25.642H56.0487C56.2955 24.771 57.0911 24.1264 58.0443 24.1264C59.1827 24.1264 60.1154 25.0522 60.1154 26.1975C60.1154 27.3428 59.1896 28.2686 58.0443 28.2686C57.0979 28.2686 56.2955 27.6239 56.0487 26.753H54.533V26.7461H54.5193V23.0565H53.2369V29.071C54.1078 29.3179 54.7525 30.1134 54.7525 31.0667C54.7525 32.2051 53.8267 33.1378 52.6814 33.1378C51.543 33.1378 50.6103 32.2119 50.6103 31.0667C50.6103 30.1203 51.2549 29.3179 52.1259 29.071V23.0565H50.8092V26.7461H50.7954V26.753H49.4376C49.1907 27.6239 48.3951 28.2686 47.4419 28.2686C46.3035 28.2686 45.3708 27.3428 45.3708 26.1975C45.3708 25.0522 46.2966 24.1264 47.4419 24.1264C48.3883 24.1264 49.1907 24.771 49.4376 25.642H49.705V23.0565H48.7723L47.9837 21.9318H46.9207L42.175 30.4083L29.9746 43.0201H33.9042L43.3408 32.0473L43.478 34.3859C43.478 34.3859 39.4249 38.8505 39.4935 38.8093C39.5621 38.7613 44.6233 35.0717 44.6233 35.0717L46.6944 32.0611L45.0759 36.6833L48.4706 33.2406L50.6103 29.071L49.3347 35.5861L42.703 43.0133H48.0797L51.6801 35.7301L52.6951 37.1634V37.1771L52.702 37.1703L52.7088 37.1771V37.1634L53.7238 35.7301L57.3242 43.0201H62.7009L56.0624 35.5929L54.7868 29.0778L56.9265 33.2475L60.3212 36.6902L58.7027 32.0679L60.7738 35.0786C60.7738 35.0786 65.835 38.7682 65.9036 38.8162C65.9721 38.8642 61.9191 34.3928 61.9191 34.3928L62.0562 32.0542L71.4928 43.0201Z" fill="#404040"/>
<path d="M47.4425 25.2374C46.9145 25.2374 46.4824 25.6694 46.4824 26.1975C46.4824 26.7255 46.9145 27.1576 47.4425 27.1576C47.9706 27.1576 48.4027 26.7255 48.4027 26.1975C48.4027 25.6694 47.9706 25.2374 47.4425 25.2374Z" fill="#404040"/>
<path d="M58.0519 27.1576C58.5822 27.1576 59.012 26.7277 59.012 26.1975C59.012 25.6672 58.5822 25.2374 58.0519 25.2374C57.5217 25.2374 57.0918 25.6672 57.0918 26.1975C57.0918 26.7277 57.5217 27.1576 58.0519 27.1576Z" fill="#404040"/>
<path d="M51.7422 31.0667C51.7422 31.5947 52.1742 32.0268 52.7023 32.0268C53.2304 32.0268 53.6624 31.5947 53.6624 31.0667C53.6624 30.5386 53.2304 30.1066 52.7023 30.1066C52.1742 30.1066 51.7422 30.5386 51.7422 31.0667Z" fill="#404040"/>
<path d="M41.2626 17.2272C42.6136 17.2272 43.7726 16.3357 43.7726 16.3357C48.5389 16.6443 49.4373 21.9592 49.4373 21.9592H49.739H50.6443C50.6443 21.9798 50.6443 22.0072 50.6443 22.0278V21.9592H50.7952V11.5214L48.484 9.21025V8.12669C49.2453 7.90038 49.8008 7.194 49.8008 6.35733C49.8008 5.33549 48.9709 4.50568 47.9491 4.50568C46.9273 4.50568 46.0975 5.33549 46.0975 6.35733C46.0975 7.194 46.653 7.90038 47.4142 8.12669V9.64916L49.7253 11.9603V16.9255C49.355 15.8419 48.6006 15.1767 48.6006 15.1767C48.8201 12.3924 46.3101 11.6243 46.3101 11.6243C46.8587 10.6504 46.3238 7.67406 43.8343 7.67406C39.3766 7.67406 40.179 11.3431 40.179 11.3431C40.179 11.3431 37.957 12.0837 37.957 14.2714C37.9639 16.4591 39.9116 17.2272 41.2626 17.2272ZM47.1673 6.35733C47.1673 5.92528 47.5239 5.56866 47.956 5.56866C48.388 5.56866 48.7446 5.92528 48.7446 6.35733C48.7446 6.78938 48.388 7.146 47.956 7.146C47.5239 7.146 47.1673 6.78938 47.1673 6.35733Z" fill="#FF7E06"/>
<path d="M56.858 8.12669V9.21025L54.5469 11.5214V21.9592H54.6978V22.0278C54.6978 22.0072 54.6978 21.9798 54.6978 21.9592H55.603H55.9048C55.9048 21.9592 56.7963 16.6443 61.5694 16.3357C61.5694 16.3357 62.7284 17.2272 64.0795 17.2272C65.4305 17.2272 67.3782 16.4591 67.3782 14.2714C67.3782 12.0837 65.1562 11.3431 65.1562 11.3431C65.1562 11.3431 65.9586 7.67406 61.5009 7.67406C59.0046 7.67406 58.4765 10.6504 59.0251 11.6243C59.0251 11.6243 56.5151 12.3924 56.7346 15.1767C56.7346 15.1767 55.9802 15.8351 55.6099 16.9255V11.9603L57.921 9.64916V8.12669C58.6822 7.90038 59.2377 7.194 59.2377 6.35733C59.2377 5.33549 58.4079 4.50568 57.3861 4.50568C56.3642 4.50568 55.5344 5.33549 55.5344 6.35733C55.5344 7.18715 56.0968 7.89352 56.858 8.12669ZM57.3861 5.56866C57.8181 5.56866 58.1747 5.92528 58.1747 6.35733C58.1747 6.78938 57.8181 7.146 57.3861 7.146C56.954 7.146 56.5974 6.78938 56.5974 6.35733C56.5974 5.92528 56.954 5.56866 57.3861 5.56866Z" fill="#FF7E06"/>
<path d="M52.1659 4.58799V22.0278H53.2221V4.58799C54.2508 4.34796 55.0189 3.42213 55.0189 2.32486C55.0189 1.04241 53.9764 0 52.694 0C51.4116 0 50.3691 1.04241 50.3691 2.32486C50.3691 3.42213 51.1372 4.34796 52.1659 4.58799ZM52.694 1.05613C53.3935 1.05613 53.9559 1.62534 53.9559 2.318C53.9559 3.01065 53.3867 3.57987 52.694 3.57987C51.9945 3.57987 51.4321 3.01065 51.4321 2.318C51.4321 1.62534 52.0013 1.05613 52.694 1.05613Z" fill="#FF7E06"/>
</mask>
<g mask="url(#mask0_209_2510)">
<rect x="-20.6367" y="-38.2395" width="146.79" height="115.952" fill="#7C8381"/>
</g>
</svg>
