<?xml version="1.0" encoding="utf-8"?>
<!-- Generator: Adobe Illustrator 24.0.0, SVG Export Plug-In . SVG Version: 6.00 Build 0)  -->
<svg version="1.1" id="Layer_1" xmlns="http://www.w3.org/2000/svg" xmlns:xlink="http://www.w3.org/1999/xlink" x="0px" y="0px"
	 viewBox="0 0 139.5019989 38" style="enable-background:new 0 0 139.5019989 38;" xml:space="preserve">
<style type="text/css">
	.st0{fill:#7C8381;}
	.st1{opacity:0.9;fill:#7C8381;enable-background:new    ;}
	.st2{opacity:0.8;fill:#7C8381;enable-background:new    ;}
	.st3{opacity:0.4;fill:#7C8381;enable-background:new    ;}
	.st4{opacity:0.2;fill:#7C8381;enable-background:new    ;}
	.st5{opacity:0.3;fill:#7C8381;enable-background:new    ;}
	.st6{opacity:0.7;fill:#7C8381;enable-background:new    ;}
	.st7{opacity:0.6;fill:#7C8381;enable-background:new    ;}
	.st8{opacity:0.95;fill:#7C8381;enable-background:new    ;}
	.st9{opacity:0.55;fill:#7C8381;enable-background:new    ;}
</style>
<g>
	<path class="st0" d="M52.7226715,10.5164452c0.3720398,0,0.5515442,0.1795416,0.5515442,0.5514708v16.3773117
		c0,0.3718567-0.1795044,0.5515423-0.5515442,0.5515423h-2.6931114c-0.3847084,0-0.5770607-0.1796856-0.5770607-0.5515423
		V11.0679159c0-0.3719292,0.1923523-0.5514708,0.5770607-0.5514708H52.7226715z"/>
	<path class="st0" d="M69.3179932,14.2871132c1.1157532,0,2.052002,0.0897713,2.8215942,0.2821407
		c0.7694092,0.1923704,1.3721619,0.4873409,1.8339539,0.8977413c0.4616089,0.4104004,0.7822571,0.9362106,0.9874573,1.5774517
		s0.2949524,1.4107056,0.2949524,2.3084087v3.5910015c0,0.8977032-0.1026077,1.6672955-0.2949524,2.3084106
		c-0.2052002,0.6412926-0.5258484,1.167141-0.9874573,1.5775433c-0.461792,0.4103966-1.0773926,0.7053509-1.8339539,0.8848572
		c-0.7695923,0.1796837-1.7058411,0.2694378-2.8215942,0.2694378h-7.0663681c-1.1285973,0-2.0776978-0.0897541-2.834259-0.2694378
		c-0.7567406-0.1795063-1.3723412-0.4744606-1.8212814-0.8848572c-0.4616165-0.4104023-0.7822647-0.9362507-0.9874573-1.5775433
		c-0.1923561-0.6411152-0.2949524-1.4107075-0.2949524-2.3084106v-3.5910015c0-0.8977032,0.1025963-1.6671677,0.2949524-2.3084087
		c0.2051926-0.6412411,0.5258408-1.1670513,0.9874573-1.5774517c0.4617844-0.4104004,1.0645409-0.7053709,1.8212814-0.8977413
		c0.7565613-0.1923695,1.7056618-0.2821407,2.834259-0.2821407H69.3179932z M59.866127,22.3282566
		c0,0.5386963,0.0385475,0.9747906,0.1282997,1.3209515c0.0897522,0.346344,0.230896,0.6284485,0.4360962,0.8336487
		c0.2051926,0.2052021,0.4873009,0.3590088,0.8334618,0.4489441c0.346344,0.0897503,0.7952843,0.1409607,1.3209534,0.1409607
		h6.3740463c0.5513611,0,1.0003052-0.0383606,1.3466492-0.1409607c0.3461609-0.0899353,0.6284485-0.243742,0.8334656-0.4489441
		c0.2052002-0.2052002,0.3591919-0.4873047,0.4360962-0.8336487c0.0769043-0.3461609,0.1282959-0.7951031,0.1282959-1.3209515
		v-2.3726482c0-0.5129986-0.0385437-0.9489136-0.1282959-1.2952557c-0.0897522-0.3461628-0.230896-0.6283932-0.4360962-0.846405
		c-0.2050171-0.218029-0.4873047-0.3719292-0.8334656-0.4488716c-0.346344-0.0769577-0.7952881-0.1282578-1.3466492-0.1282578
		H62.584938c-0.5385132,0-0.9746094,0.0384693-1.3209534,0.1282578c-0.3461609,0.0897713-0.6282692,0.2308426-0.8334618,0.4488716
		c-0.2052002,0.2180119-0.3591957,0.5002422-0.4360962,0.846405c-0.0769081,0.3463421-0.1282997,0.7822571-0.1282997,1.2952557
		V22.3282566z"/>
	<path class="st0" d="M97.2890701,10.5164452c0.3847046,0,0.5770645,0.1795416,0.5770645,0.5514708v2.4495344
		c0,0.3847599-0.1923599,0.5771294-0.5770645,0.5771294h-7.8488083v13.3506489c0,0.3718567-0.1795044,0.5515423-0.5515442,0.5515423
		h-2.7059631c-0.3718567,0-0.5515366-0.1796856-0.5515366-0.5515423V14.0817499h-7.8488083
		c-0.3847046,0-0.5770645-0.1923695-0.5770645-0.5771112v-2.4367228c0-0.3719292,0.1923599-0.5514708,0.5770645-0.5514708
		H97.2890701z"/>
	<path class="st0" d="M112.22995,14.2871132c0.846489,0,1.5518417,0.0641117,2.1162338,0.2052011
		c0.564209,0.1410694,1.0003128,0.371911,1.3209534,0.7053509c0.3206558,0.3206301,0.5513611,0.7438421,0.6925125,1.2696714
		c0.1282883,0.5258102,0.2051926,1.1670513,0.2051926,1.9109116v2.3726482c0,0.5385132-0.115448,0.8977032-0.346344,1.1157513
		c-0.2307053,0.2052002-0.5899048,0.3078003-1.0772095,0.3078003h-12.6196213v0.6027527
		c0,0.7822571,0.1923523,1.3466454,0.564209,1.6928101c0.3718643,0.3463421,1.1029129,0.5258446,2.1802979,0.5258446h10.4138107
		c0.2949524,0,0.4487686,0.1538105,0.4487686,0.4489441v2.1032104c0,0.2949524-0.1538162,0.4489422-0.4487686,0.4489422h-10.7730026
		c-1.1285934,0-2.0775146-0.0899315-2.834259-0.2694378c-0.7565536-0.1795044-1.3594971-0.4744587-1.8210983-0.8848572
		c-0.461792-0.4104004-0.7822571-0.9362469-0.9874649-1.5775433c-0.2051926-0.6411133-0.2949524-1.4107056-0.2949524-2.3084087
		v-3.5909996c0-0.8977051,0.1026077-1.6671867,0.2949524-2.3084278c0.2052078-0.6412411,0.5256729-1.1670713,0.9874649-1.5774527
		c0.4616013-0.4104013,1.0645447-0.7053709,1.8210983-0.8977413c0.7567444-0.1923704,1.7056656-0.2821407,2.834259-0.2821407
		h7.3229675V14.2871132z M102.5088272,19.9556084h10.1186752c0.2822876,0,0.4232483-0.1409607,0.4232483-0.4230652v-1.0516968
		c0-0.5129986-0.1026077-0.8849277-0.3206558-1.1029587c-0.217865-0.2180099-0.6154175-0.32061-1.1926498-0.32061h-6.2712708
		c-1.0773849,0-1.8084335,0.1667118-2.1802979,0.5129986c-0.3718567,0.3462715-0.564209,0.9105701-0.564209,1.705677v0.6796551
		H102.5088272z"/>
	<path class="st0" d="M138.7646179,10.5165358c0.230896,0,0.3590088,0.0769596,0.3847198,0.2436895
		c0.0256805,0.1538811-0.0257111,0.2949705-0.1409607,0.4103813l-7.6693115,7.7718506l8.0154572,8.4130192
		c0.115448,0.115448,0.1668396,0.2565899,0.1411438,0.4103985c-0.0256958,0.1539936-0.1539917,0.2437439-0.3847046,0.2437439
		h-3.4243317c-0.2052155,0-0.3590088-0.0256958-0.4744568-0.0769043c-0.115448-0.0513916-0.230896-0.1411419-0.3206635-0.2694378
		l-6.1686554-6.4636192l-6.1945496,6.4636192c-0.1152573,0.1282959-0.2307053,0.2308941-0.3333054,0.2694378
		c-0.1026077,0.0512085-0.2694473,0.0769043-0.4874954,0.0769043h-3.2446518c-0.2180481,0-0.333313-0.0769043-0.3590088-0.2437439
		c-0.0256882-0.1538086,0.0256958-0.2949505,0.1409607-0.4103985l8.2208481-8.5413151l-7.4384079-7.6563663
		c-0.1026001-0.1154289-0.1411438-0.2565002-0.1283035-0.4103994c0.0128555-0.1539001,0.1411514-0.2436705,0.3718719-0.2436705
		h3.4243317c0.2052078,0,0.3590088,0.0256405,0.4744568,0.0897703c0.115448,0.0513,0.230896,0.1410704,0.3206558,0.2564993
		l5.4504623,5.7968273l5.771286-5.7968273c0.1026001-0.1154289,0.2052155-0.2051992,0.3206635-0.2564993
		c0.115448-0.0641298,0.2692413-0.0897703,0.4744568-0.0897703h3.2574921V10.5165358z"/>
	<path class="st0" d="M24.3285294,0v9.1441031l7.9257126-4.5784574L24.3285294,0z"/>
	<path class="st1" d="M32.2670898,4.5655189v9.144104l7.9258957-4.5656462L32.2670898,4.5655189z"/>
	<path class="st2" d="M24.3285294,9.1441031v9.1440306l7.9385605-4.5783854L24.3285294,9.1441031z"/>
	<path class="st2" d="M32.2670898,13.7096224v9.1441202l7.9258957-4.565609L32.2670898,13.7096224z"/>
	<path class="st2" d="M24.3285294,18.2881336v9.144249l7.9385605-4.5784588L24.3285294,18.2881336z"/>
	<path class="st0" d="M32.2670898,22.8537426v9.1440678l7.9258957-4.5656109L32.2670898,22.8537426z"/>
	<path class="st3" d="M3.8088548,8.8362665v9.1441221l7.9257498-4.578476L3.8088548,8.8362665z"/>
	<path class="st4" d="M13.8122091,12.234787v9.1441936l7.938653-4.5785484L13.8122091,12.234787z"/>
	<path class="st5" d="M7.9384236,18.0188942v9.1440468l7.9257503-4.578455L7.9384236,18.0188942z"/>
	<path class="st1" d="M13.1581211,24.9187717v9.1440678l7.9385986-4.5784588L13.1581211,24.9187717z"/>
	<path class="st6" d="M24.2516232,28.8559322V38l7.9385624-4.5784569L24.2516232,28.8559322z"/>
	<path class="st1" d="M15.1331263,7.7205143v9.1441212l7.938508-4.5656452L15.1331263,7.7205143z"/>
	<path class="st2" d="M24.3285294,0v9.1441031L16.389986,4.5656457L24.3285294,0z"/>
	<path class="st7" d="M15.1331263,3.8731592v9.1441021L7.2073755,8.4516344L15.1331263,3.8731592z"/>
	<path class="st7" d="M23.0716343,8.4132175v9.1441212l-7.9256964-4.578474L23.0716343,8.4132175z"/>
	<path class="st8" d="M13.7864962,12.234787v9.1441936l-7.9385614-4.5785484L13.7864962,12.234787z"/>
	<path class="st7" d="M24.3285294,18.2881336v9.144249l-7.9385433-4.5784588L24.3285294,18.2881336z"/>
	<path class="st9" d="M7.9384236,20.4172192v9.1312199l-7.9385805-4.565609L7.9384236,20.4172192z"/>
	<path class="st0" d="M40.1929855,9.1441031v9.1440306l-7.9258957-4.5783854L40.1929855,9.1441031z"/>
	<path class="st8" d="M32.2670898,13.7096224v9.1441202l-7.9385605-4.565609L32.2670898,13.7096224z"/>
	<path class="st1" d="M40.2056541,18.2881336v9.144249l-7.9385643-4.5784588L40.2056541,18.2881336z"/>
	<path class="st6" d="M32.2542419,22.8537426v9.1440678l-7.9257126-4.5656109L32.2542419,22.8537426z"/>
	<path class="st3" d="M22.5714817,26.6756382v9.1440678l-7.9385252-4.5656109L22.5714817,26.6756382z"/>
	<path class="st0" d="M32.2670898,4.5655189v9.144104l-7.9385605-4.5656462L32.2670898,4.5655189z"/>
</g>
</svg>
