<?xml version="1.0" encoding="utf-8"?>
<!-- Generator: Adobe Illustrator 24.0.0, SVG Export Plug-In . SVG Version: 6.00 Build 0)  -->
<svg version="1.1" id="Layer_1" xmlns="http://www.w3.org/2000/svg" xmlns:xlink="http://www.w3.org/1999/xlink" x="0px" y="0px"
	 viewBox="0 0 206.5 38" style="enable-background:new 0 0 206.5 38;" xml:space="preserve">
<style type="text/css">
	.st0{fill:#7C8381;}
</style>
<g>
	<polygon class="st0" points="0,15.5 10.6,4.7 17,4.7 17,15.3 28.1,4.7 34.9,4.7 34.9,15.3 45.5,4.7 51.8,4.7 51.8,15.3 60.6,15.3 
		49.8,26.2 43.3,26.2 43.3,15.5 32.6,26.2 25.6,26.2 25.6,15.5 15,26.1 8.7,26.1 8.7,15.5 	"/>
	<polygon class="st0" points="79.8,28.9 85.4,28.9 85.4,10.6 93,28.9 97.2,28.9 105.1,9.9 105.1,28.9 110.6,28.9 110.6,0.8 
		103.7,0.8 95.2,21.9 86.7,0.8 79.8,0.8 	"/>
	<path class="st0" d="M133.6,9.7h6.2c0-8-14.2-14.2-22.5-5.5c-5.5,5.7-4.8,16.8,0.4,21.8c5.2,5,20.1,5.3,21.8-6h-5.7
		c-4.4,8.4-14.8,4.8-14.8-5.4S131.7,2.5,133.6,9.7z"/>
	<path class="st0" d="M154.8,0.8h-12.1v28.1h5.7V18.2h6.4C166.3,18.2,166.3,0.8,154.8,0.8z M153,13.6h-4.8V5.2h4.8
		C159.8,5.2,159.8,13.6,153,13.6z"/>
	<path class="st0" d="M182.5,21.8v-7.4c0-7.3-18.2-9.2-18.2,0.7h5c1.5-3.5,8-3.8,8,2.1c0,0-13-3.8-13,6.7c0,7.9,11.2,5.9,13.4,2.6
		c1.1,2,3.2,3.1,6.9,2.4v-4.4C183.4,24.5,182.6,23.6,182.5,21.8z M169.5,23.6c-0.3-3.8,6.1-3.4,7.7-2.5
		C175.7,26.5,169.8,26.3,169.5,23.6z"/>
	<path class="st0" d="M183.8,8.6h5.6l5.6,14l5.9-14h5.6l-10.7,24.9c-1,2.4-1.9,4.4-6.1,4.4h-5.6v-4.2h4.7c0.5,0,1-0.3,1.2-0.7
		l1.5-2.8c0.3-0.5,0.3-1.2,0.1-1.8L183.8,8.6z"/>
</g>
</svg>
