<?xml version="1.0" encoding="utf-8"?>
<!-- Generator: Adobe Illustrator 24.0.0, SVG Export Plug-In . SVG Version: 6.00 Build 0)  -->
<svg version="1.1" id="Layer_1" xmlns="http://www.w3.org/2000/svg" xmlns:xlink="http://www.w3.org/1999/xlink" x="0px" y="0px"
	 viewBox="0 0 65.1 38" style="enable-background:new 0 0 65.1 38;" xml:space="preserve">
<style type="text/css">
	.st0{fill:#7C8381;}
</style>
<path class="st0" d="M49.2,22.3c0-0.3,0-0.5,0-0.8h8.3l2.1-4.8H47.8c-1-1.9-2.4-3.2-4.1-4c0.2-0.3,0.3-0.6,0.5-0.9h18.2l2.6-4.8
	H44.9c-0.7-3.5-4-6.9-10-6.9h-7.5l2.7,4.8h4.8c3.7,0,5.3,1.9,5.3,3.6s-1.7,3.6-5.3,3.6h-3.1c-2.1-3.2-5.6-5.1-9.4-5.1
	c-1.9,0-3.8,0.5-5.5,1.5c-1.7-1-3.6-1.5-5.5-1.5C5.1,6.9,0,12,0,18.2s5.1,11.3,11.3,11.3c1.9,0,3.8-0.5,5.5-1.5
	c1.7,1,3.6,1.5,5.5,1.5c6.2,0,11.3-5.1,11.3-11.3c0-0.4,0-0.9-0.1-1.3h6.9c3.1,0,3.9,3.5,3.9,5.4c0,1.5-0.4,3-1.1,4
	c-0.7,1-1.6,1.4-2.8,1.4H29.3L19.8,38l6.5,0l5-5.5h9.1c1.9,0,3.7-0.6,5.1-1.8h14.3l2.5-4.8H48.7C49,24.7,49.2,23.5,49.2,22.3z
	 M11.3,11.8c0.6,0,1.1,0.1,1.7,0.2c-1.2,1.8-1.9,4-1.9,6.2s0.6,4.3,1.9,6.2c-0.6,0.2-1.1,0.2-1.7,0.2c-3.6,0-6.4-2.9-6.4-6.4
	S7.7,11.8,11.3,11.8z M22.5,18.2c0-2.2-0.6-4.3-1.9-6.2c0.6-0.2,1.1-0.2,1.7-0.2c3.6,0,6.4,2.9,6.4,6.4s-2.9,6.4-6.4,6.4
	c-0.6,0-1.1-0.1-1.7-0.2C21.9,22.6,22.5,20.4,22.5,18.2z M17.7,18.2c0,1.1-0.3,2.3-0.9,3.2c-0.6-1-0.9-2.1-0.9-3.2s0.3-2.3,0.9-3.2
	C17.4,16,17.7,17.1,17.7,18.2z"/>
</svg>
