<?xml version="1.0" encoding="utf-8"?>
<!-- Generator: Adobe Illustrator 24.0.0, SVG Export Plug-In . SVG Version: 6.00 Build 0)  -->
<svg version="1.1" id="Layer_1" xmlns="http://www.w3.org/2000/svg" xmlns:xlink="http://www.w3.org/1999/xlink" x="0px" y="0px"
	 viewBox="0 0 194.7409973 38" style="enable-background:new 0 0 194.7409973 38;" xml:space="preserve">
<style type="text/css">
	.st0{fill:#7C8381;}
	.st1{fill-rule:evenodd;clip-rule:evenodd;fill:#7C8381;}
</style>
<g>
	<path class="st0" d="M30.3187256,0l-11.868351,6.8161654v21.2736778l-6.5483341,3.7958412l-6.5883584-3.798914v-7.5951328
		l6.5883584-3.7621498l4.2362652,2.4567833v-6.14503l-4.2731934-2.4259977l-11.8652058,6.8931637v13.6354046L11.9051352,38
		l11.8652544-6.8561878V9.8732996l6.5882664-3.7990789l6.5851917,3.7990789v7.5612059l-6.5851917,3.8329582l-4.2730999-2.4783306
		v6.1141968l4.2331696,2.4413319L42.30093,20.5285683V6.8161654L30.3187256,0z"/>
	<path class="st1" d="M99.9490051,29.5336609h5.3197556v-29.16115h-5.3197556V29.5336609z M65.7479172,8.8049774
		c2.521431,0,4.611908,1.0128946,6.2650528,3.0355873c1.6564636,2.0226688,2.4814987,4.5318089,2.4814987,7.5273476
		s-0.8281097,5.5047035-2.4814987,7.5273724c-1.6562195,2.0226707-3.7436218,3.0355396-6.2650528,3.0355396
		c-1.7856903,0-3.3372498-0.550972-4.6487579-1.6562214c-1.2869377-1.1300583-2.2319984-2.6539707-2.8384933-4.5719738v13.7123795
		h-5.3199921V9.1990681h5.3199921v5.830986c0.6034203-1.9180031,1.5515556-3.4296303,2.8384933-4.531785
		C62.4137383,9.3683767,63.9622269,8.8049774,65.7479172,8.8049774z M63.8145599,25.0819473
		c1.4438171,0,2.6660156-0.5386868,3.6635361-1.6163387c0.9975128-1.1021557,1.4962616-2.4690933,1.4962616-4.0976963
		c0-1.628624-0.4987488-2.9432068-1.4962616-4.0207424c-0.9975204-1.1021786-2.2197189-1.6563396-3.6635361-1.6563396
		c-1.6040077,0-2.927803,0.5387802-3.9808388,1.6163168c-1.0497284,1.0775366-1.5761261,2.4290686-1.5761261,4.0576944
		c0,1.6286011,0.5263977,2.9955387,1.5761261,4.0976944c1.0499649,1.0776539,2.3768311,1.6163406,3.9808388,1.6163406V25.0819473z
		 M75.9075699,19.3679123c0,2.9955406,1.0374451,5.5047035,3.1125641,7.5273724
		c2.0748825,2.0226707,4.6641159,3.0355396,7.7643967,3.0355396c3.1002731,0,5.68927-1.0128689,7.764389-3.0355396
		c2.0751266-2.0226688,3.1125641-4.5318317,3.1125641-7.5273724s-1.0374374-5.5046787-3.1125641-7.5273476
		c-2.075119-2.0226927-4.6641159-3.0355873-7.764389-3.0355873c-3.1002808,0-5.6895142,1.0128946-7.7643967,3.0355873
		C76.945015,13.8632336,75.9075699,16.3723736,75.9075699,19.3679123z M82.9608078,23.4656086
		c-1.0251541-1.1021557-1.5361938-2.4690933-1.5361938-4.0976963c0-1.628624,0.5110397-2.9432068,1.5361938-4.0207424
		c1.0251617-1.1021786,2.2998047-1.6563396,3.8237228-1.6563396c1.5239105,0,2.7985687,0.5387802,3.8237228,1.6163168
		s1.5361938,2.4290686,1.5361938,4.0576944c0,1.6286011-0.5110397,2.9955387-1.5361938,4.0976944
		c-1.0251541,1.0776539-2.2998123,1.6163406-3.8237228,1.6163406c-1.5239182,0-2.7985611-0.5386868-3.8237228-1.6163406V23.4656086z
		 M154.4167175,26.8952847c-2.0748901-2.0226688-3.1125641-4.5318317-3.1125641-7.5273724s1.037674-5.5046787,3.1125641-7.5273476
		c2.075119-2.0226927,4.6641235-3.0355873,7.764389-3.0355873s5.6895142,1.0128946,7.764389,3.0355873
		c2.0751343,2.0226688,3.1125641,4.5318089,3.1125641,7.5273476s-1.0374298,5.5047035-3.1125641,7.5273724
		c-2.0748749,2.0226707-4.6641235,3.0355396-7.764389,3.0355396S156.4949036,28.9179554,154.4167175,26.8952847z
		 M156.8181152,19.3679123c0,1.628603,0.5110474,2.9955406,1.5361938,4.0976963
		c1.0251617,1.077652,2.2998199,1.6163387,3.8237305,1.6163387c1.5238953,0,2.7985535-0.5386868,3.8237152-1.6163387
		c1.0251465-1.1021557,1.5361938-2.4690933,1.5361938-4.0976963c0-1.628624-0.5110474-2.9832287-1.5361938-4.0576935
		c-1.0251617-1.0775366-2.2998199-1.616293-3.8237152-1.616293c-1.5239105,0-2.7985687,0.5510654-3.8237305,1.6563148
		c-1.0251465,1.0775356-1.5361938,2.4167614-1.5361938,4.0207424V19.3679123z M187.21698,8.8049774
		c2.2596436,0,4.0729828,0.7881584,5.4369507,2.3644276c1.3913574,1.576292,2.0871582,3.5866518,2.0871582,6.0280304v12.3331547
		h-5.3197479V18.1425934c0-1.3145828-0.4188995-2.3921185-1.2623749-3.2326097
		c-0.8403931-0.8404675-1.8903503-1.262248-3.1524963-1.262248c-1.4192352,0-2.5738678,0.4217806-3.4667053,1.262248
		c-0.8928528,0.8404913-1.3391571,1.9180269-1.3391571,3.2326097v11.3879967h-5.3199921V9.1990681h5.3199921v5.2029457
		c0.5263977-1.7332916,1.4069519-3.1002293,2.641449-4.0977182c1.2623596-0.9974899,2.7184753-1.4962225,4.3749237-1.4962225
		V8.8049774z M118.0483627,24.1120777l5.4369431-14.894556h5.4000854l-11.1909485,28.2159157h-5.4000931l2.8384933-7.1732597
		l-8.315361-21.0426559h5.7540054L118.0483627,24.1120777z M144.0139465,9.1990681v5.0951853
		c-1.1083374-3.3249655-3.8452301-5.0951853-7.4872589-5.0951853c-5.4986115,0-8.7496185,4.8027115-8.7496185,9.8517303
		c0,5.0489922,3.2264404,10.2458897,8.7496185,10.2458897c3.6420288,0,6.3789215-2.626091,7.4872589-5.951128v3.9005795
		c0,1.6564579-0.5386963,3.0201817-1.6162872,4.0977898c-1.0776215,1.0776062-2.3891144,1.616291-3.9406891,1.616291
		c-2.1027679,0-3.6637726-1.0497284-4.6889191-3.1524906l-4.7687683,2.5214252
		c0.8928375,1.6562195,2.1672516,2.9800186,3.8237,3.9806023c1.6562347,0.9975128,3.5343018,1.4962692,5.6339874,1.4962692
		c3.1002808,0,5.6892853-1.0098,7.764389-3.0355377c2.0749054-2.0226707,3.1125641-4.5318108,3.1125641-7.527422V9.1990681
		H144.0139465z M142.4777527,22.9145412c-1.0254059,1.0252972-2.3121033,1.5363407-3.8608246,1.5363407
		c-1.5484924,0-2.7583923-0.5110435-3.7835541-1.5363407c-1.0251617-1.0498219-1.5361938-2.3367138-1.5361938-3.8606491
		c0-1.5239601,0.5110321-2.7985172,1.5361938-3.8237219c1.0251617-1.0252028,2.2842102-1.5362444,3.7835541-1.5362444
		s2.8387299,0.5110416,3.8608246,1.5362444c1.0251465,0.997489,1.5361938,2.2720709,1.5361938,3.8237219
		S143.5028992,21.8924103,142.4777527,22.9145412z"/>
</g>
</svg>
