<?xml version="1.0" encoding="utf-8"?>
<!-- Generator: Adobe Illustrator 24.0.0, SVG Export Plug-In . SVG Version: 6.00 Build 0)  -->
<svg version="1.1" id="Layer_1" xmlns="http://www.w3.org/2000/svg" xmlns:xlink="http://www.w3.org/1999/xlink" x="0px" y="0px"
	 viewBox="0 0 102.0370026 38" style="enable-background:new 0 0 102.0370026 38;" xml:space="preserve">
<style type="text/css">
	.st0{fill-rule:evenodd;clip-rule:evenodd;fill:#7C8381;}
	.st1{fill:#7C8381;}
</style>
<g>
	<path class="st0" d="M18.9181538,38c5.6344604,0,10.6965599-2.4487305,14.1784229-6.3393059
		c-1.6196404-1.4066391-4.0606213-1.492054-5.7849445-0.1017685l-0.3294182,0.2656231
		c-3.15728,2.5455952-7.7576828,2.1696644-10.4590263-0.8546944c-1.4733486-1.649437-3.996541-1.8178425-5.6763458-0.3788452
		l-3.798173,3.2536449C10.3017225,36.4450798,14.4281969,38,18.9181538,38z M25.0832939,28.7995491
		c3.0072212-2.4246216,7.2340431-2.3377151,10.1263351,0.0041256C36.9383621,25.9414635,37.9330177,22.586832,37.9330177,19
		c0-3.985589-1.2280617-7.6844301-3.3268242-10.7395849c-1.3529472-0.2878852-2.819397,0.0483608-3.9326057,1.0340538
		l-0.3168316,0.2805614c-3.0363064,2.6885405-7.6492252,2.5251112-10.4873295-0.3713779
		c-1.5479507-1.5797424-4.076335-1.6316581-5.6878662-0.1167049L9.7616539,13.241869l-2.4314504-2.5824327l4.4199777-4.1549077
		c3.0187416-2.8378603,7.7549801-2.7406847,10.6546707,0.2186027c1.5150948,1.5462456,3.977623,1.6335068,5.5984726,0.1982551
		l0.3168297-0.2805462c0.9839153-0.8711939,2.1223011-1.4585142,3.3140945-1.7674074
		C28.2654667,1.8437814,23.8072968,0,18.9181538,0C9.2654638,0,1.2926706,7.1868906,0.0667163,16.4975758
		c2.9319024-1.405859,6.5483899-0.8648653,8.9389534,1.5812359c1.5091944,1.5441818,3.9391508,1.7071838,5.6413574,0.378418
		l2.4712744-1.9291439c3.1057186-2.4244814,7.4961834-2.3071365,10.4677753,0.2798481l4.8112698,4.1884899l-2.3309612,2.6733208
		l-4.8112698-4.1884899c-1.6896896-1.4710026-4.1862144-1.5377808-5.9522858-0.15909l-2.4712029,1.9290733
		c-3.1274099,2.4414063-7.5919781,2.1419296-10.3647099-0.6952496c-1.6123281-1.6497936-4.2493086-1.7073975-5.9322014-0.1295052
		l-0.5347767,0.5013809c0.4002124,3.9684525,2.0225434,7.5764046,4.4851999,10.4425278l4.0520773-3.4711933
		c3.1466827-2.6955833,7.8733921-2.3801746,10.633337,0.7097549c1.4420567,1.6144485,3.8978996,1.8151436,5.5833225,0.4562225
		L25.0832939,28.7995491z"/>
	<path class="st1" d="M51.6293297,25.0938797c0,3.975563,3.1231422,6.5832424,8.0430832,6.5832424
		c4.9627495,0,8.3850822-2.5221252,8.3850822-6.4978294c0-3.1206512-1.7536926-4.7450562-5.3047523-5.6000366l-3.6792145-0.8977909
		c-2.0536003-0.5129032-3.0804024-1.4534378-3.0804024-2.8641319c0-1.9237394,1.4118347-3.0351706,3.9360199-3.0351706
		c2.4385643,0,3.8504639,1.3252106,3.9359512,3.419919h3.8507462c-0.085556-3.9757051-3.0806808-6.5405722-7.6583977-6.5405722
		c-4.6204643,0-7.8719025,2.4366407-7.8719025,6.2840481c0,3.0779123,1.7540512,4.9161673,5.4761505,5.8138189l3.679287,0.8550491
		c2.1818962,0.5557156,2.8664017,1.410696,2.8664017,2.8213902c0,1.9237385-1.6257515,3.0779839-4.4494133,3.0779839
		c-2.6524887,0-4.278244-1.2825413-4.278244-3.41992H51.6293297z"/>
	<path class="st1" d="M82.3999863,31.6771221c5.1766739,0,8.6849213-2.5221252,9.711853-7.0107307h-3.7649765
		c-0.6841507,2.393898-2.7373276,3.6763687-5.8615417,3.6763687c-3.9783249,0-6.2882385-2.4367123-6.5883636-6.8398361
		l16.1722183-0.0427418v-1.4962482c0-6.1985655-3.8929977-10.3024244-9.8398743-10.3024244
		c-6.0755997,0-10.2253265,4.5313473-10.2253265,11.0719194C72.0039749,27.2312584,76.2397537,31.6771221,82.3999863,31.6771221z
		 M82.2293015,13.0386133c3.5509186,0,5.818161,2.3084879,5.818161,5.7711477H75.983017
		C76.4964905,15.1333914,78.7210617,13.0386133,82.2293015,13.0386133z"/>
	<path class="st1" d="M99.3850708,5.3008723c1.4543686,0,2.6519928-1.1969709,2.6519928-2.6504362
		C102.0370636,1.1542222,100.8394394,0,99.3850708,0c-1.4550705,0-2.6534042,1.1542222-2.6534042,2.6504362
		C96.7316666,4.1039014,97.9300003,5.3008723,99.3850708,5.3008723z M97.4165344,31.1640072h4.0217133V10.2597532h-4.0217133
		V31.1640072z"/>
</g>
</svg>
