<?xml version="1.0" encoding="utf-8"?>
<!-- Generator: Adobe Illustrator 24.0.0, SVG Export Plug-In . SVG Version: 6.00 Build 0)  -->
<svg version="1.1" id="Layer_1" xmlns="http://www.w3.org/2000/svg" xmlns:xlink="http://www.w3.org/1999/xlink" x="0px" y="0px"
	 viewBox="0 0 254.2 38" style="enable-background:new 0 0 254.2 38;" xml:space="preserve">
<style type="text/css">
	.st0{fill:#7C8381;}
</style>
<g>
	
		<image style="overflow:visible;" width="1291" height="193" xlink:href="C97016F6.png"  transform="matrix(0.1969 0 0 0.1969 2.293449e-04 0)">
	</image>
	<path class="st0" d="M9.7,0h32.8c0.8,0,1.2,0.9,0.7,1.5L36,9c-0.3,0.3-0.7,0.5-1.1,0.5H1C0.6,9.5,0.4,9,0.7,8.8l7.7-8.2
		C8.7,0.2,9.2,0,9.7,0z"/>
	<path class="st0" d="M9.7,28.5h32.8c0.8,0,1.2,0.9,0.7,1.5L36,37.5c-0.3,0.3-0.7,0.5-1.1,0.5H1c-0.4,0-0.6-0.5-0.3-0.7l7.7-8.2
		C8.7,28.7,9.2,28.5,9.7,28.5z"/>
	<path class="st0" d="M1.5,14.4l33.5,0c0.3,0,0.7,0.1,0.9,0.4l7.2,7.5c0.5,0.6,0.1,1.5-0.7,1.5H9.3c-0.4,0-0.7-0.1-0.9-0.4L1,15.5
		C0.6,15,0.9,14.4,1.5,14.4z"/>
	<path class="st0" d="M87.7,4.3v6H65.4V16h17.9c3,0,5.4,2.4,5.4,5.4v6.9c0,3-2.4,5.4-5.4,5.4H60v-5.8h23v-6H65.3
		c-3.3,0-5.9-2.6-5.9-5.9v-5.8c0-3.3,2.7-5.9,5.9-5.9H87.7z"/>
	<path class="st0" d="M117.3,4.3H99.5c-3.2,0-5.8,2.6-5.8,5.8v18c0,3.2,2.6,5.8,5.8,5.8h17.8c3.2,0,5.8-2.6,5.8-5.8v-18
		C123.1,6.9,120.5,4.3,117.3,4.3z M117.2,27.7H99.6V10.2h17.5V27.7z"/>
	<path class="st0" d="M128.4,4.3h5.8v23.5h17.6v6.2h-17.5c-3.3,0-5.9-2.7-5.9-5.9V4.3z"/>
	<path class="st0" d="M179.5,4.3H162c-3.2,0-5.7,2.6-5.7,5.7v24h5.9v-9.7h17.2v9.7h5.8V10C185.2,6.8,182.7,4.3,179.5,4.3z
		 M179.3,18.2h-17.2v-8h17.2V18.2z"/>
	<path class="st0" d="M248.5,4.3H231c-3.2,0-5.7,2.6-5.7,5.7v24h5.9v-9.7h17.2v9.7h5.8V10C254.2,6.8,251.6,4.3,248.5,4.3z
		 M248.3,18.2h-17.2v-8h17.2V18.2z"/>
	<path class="st0" d="M190.5,33.9h5.9V10.1h2.2l8.5,21.4c0.5,1.3,1.7,2.1,3.1,2.1h6.1c2,0,3.6-1.6,3.6-3.6V4.3h-6v23.6h-2.2
		l-8.4-21.2c-0.6-1.4-1.9-2.3-3.4-2.3h-5.6c-2,0-3.7,1.7-3.7,3.7V33.9z"/>
</g>
</svg>
