<?xml version="1.0" encoding="utf-8"?>
<!-- Generator: Adobe Illustrator 24.0.0, SVG Export Plug-In . SVG Version: 6.00 Build 0)  -->
<svg version="1.1" id="Layer_1" xmlns="http://www.w3.org/2000/svg" xmlns:xlink="http://www.w3.org/1999/xlink" x="0px" y="0px"
	 viewBox="0 0 110.8 38" style="enable-background:new 0 0 110.8 38;" xml:space="preserve">
<style type="text/css">
	.st0{fill:#7C8381;}
</style>
<g>
	<path class="st0" d="M7.7,21.6c0,1.4,0.4,2.2,1.5,2.2l3.1,0l0,4.7c-0.2,0.1-4.5,0-4.5,0c-3.8,0-5.1-2.6-5.1-6.2l0-8l-2.7,0V9.5
		l3-0.1l0-4.4l5.1-1.8l0,6.3l4.2,0l0,4.7l-4.7,0.1L7.7,21.6z"/>
	<path class="st0" d="M21.9,28.6h-5.1v-19h5.1V28.6z M22.5,3.2c0,1.8-1.4,3.2-3.1,3.2c-1.7,0-3.1-1.4-3.1-3.2S17.6,0,19.4,0
		C21.1,0,22.5,1.4,22.5,3.2z"/>
	<path class="st0" d="M42.2,12.1c-1.4-1.7-3.3-2.6-5.7-2.6c-1.2,0-2.3,0.2-3.3,0.8c-1,0.5-1.9,1.4-2.7,2.8V9.5h-2.2h-1.6h-1.1V38H27
		h1.5h2.2V25.6c0.6,1.1,1.4,1.8,2.4,2.3c1,0.4,2,0.7,3,0.7c2.4,0,4.3-0.9,5.8-2.6s2.2-4,2.2-6.9C44.3,16.2,43.6,13.9,42.2,12.1z
		 M38.3,22.7c-0.8,1-1.8,1.4-3.1,1.4c-1.3,0-2.4-0.5-3.2-1.4c-0.8-1-1.2-2.1-1.3-3.5v-0.4c0-1.3,0.5-2.5,1.3-3.3
		c0.8-0.9,1.9-1.3,3.1-1.3c1.3,0,2.4,0.4,3.2,1.3c0.8,0.9,1.2,2.1,1.2,3.6C39.5,20.5,39.1,21.8,38.3,22.7z"/>
	<path class="st0" d="M88.2,28.7h-5.7V18.2c0-1.3-0.2-2.3-0.7-3c-0.5-0.7-1.2-1-2.3-1c-1.2,0-2.1,0.5-2.6,1.5
		c-0.6,1-0.9,2.4-0.9,4.3v8.6h-5.8V18.2c0-1.3-0.2-2.3-0.6-3c-0.4-0.7-1.1-1-2.1-1c-1.3,0-2.2,0.5-2.8,1.5c-0.6,1-1,2.4-1,4.3v8.6
		h-5.7V9.5h5.4v3.7c0.7-1.2,1.5-2.1,2.6-2.7c1-0.6,2.3-0.9,3.8-0.9c1.4,0,2.6,0.3,3.7,1c1,0.7,1.7,1.6,2.1,2.7
		c0.5-1.1,1.3-1.9,2.4-2.7c1.1-0.7,2.4-1.1,4.1-1.1c2.2,0,3.8,0.6,4.8,1.9c1,1.3,1.5,3.2,1.5,5.7V28.7z"/>
	<path class="st0" d="M105.5,25.8c-0.8,1.2-1.7,2-2.8,2.6c-1.1,0.5-2.2,0.8-3.4,0.8c-2.6,0-4.7-0.9-6.1-2.7
		c-1.5-1.8-2.3-4.2-2.3-7.2c0-2.8,0.7-5.2,2.1-7c1.4-1.8,3.4-2.7,6-2.7c1.1,0,2.2,0.2,3.2,0.6c1.1,0.4,2,1.1,2.9,2.3V0h5.7v28.7
		h-5.4V25.8z M105.1,19.6v-0.4c0-1.6-0.4-2.8-1.2-3.7c-0.8-0.9-1.8-1.4-2.9-1.4c-1.2,0-2.2,0.5-2.9,1.4c-0.8,1-1.1,2.2-1.1,3.8
		c0,1.6,0.4,2.9,1.1,3.9s1.7,1.5,3,1.5c1.2,0,2.2-0.5,2.9-1.5C104.7,22.1,105.1,20.9,105.1,19.6z"/>
	<ellipse class="st0" cx="50.6" cy="25.3" rx="3.1" ry="3.2"/>
</g>
</svg>
